<?xml version="1.0" standalone="no"?>
<!DOCTYPE svg PUBLIC "-//W3C//DTD SVG 20010904//EN"
 "http://www.w3.org/TR/2001/REC-SVG-20010904/DTD/svg10.dtd">
<svg version="1.0" xmlns="http://www.w3.org/2000/svg"
 width="417.000000pt" height="417.000000pt" viewBox="0 0 417.000000 417.000000"
 preserveAspectRatio="xMidYMid meet">
<metadata>
Created by potrace 1.11, written by Peter Selinger 2001-2013
</metadata>
<g transform="translate(0.000000,417.000000) scale(0.100000,-0.100000)"
fill="#000000" stroke="none">
<path d="M1455 3669 c-44 -26 -91 -54 -105 -61 -76 -42 -386 -222 -394 -228
-8 -8 17 -53 284 -515 73 -126 142 -246 153 -265 17 -31 280 -486 335 -580 11
-19 29 -51 40 -70 11 -19 61 -107 112 -195 51 -88 101 -173 110 -190 9 -16 51
-89 93 -162 42 -72 85 -147 96 -165 10 -18 101 -175 201 -348 100 -173 196
-340 213 -370 17 -30 32 -57 33 -59 2 -2 34 14 71 36 37 21 75 42 83 46 8 4
24 13 35 20 11 7 105 61 208 120 103 60 189 112 191 116 3 5 -177 327 -214
381 -6 8 -13 22 -17 30 -7 15 -67 119 -150 258 -24 40 -43 75 -43 77 0 2 -25
45 -55 95 -30 50 -55 92 -55 94 0 2 -48 86 -107 187 -58 101 -114 198 -123
214 -48 85 -131 227 -154 263 -14 23 -26 44 -26 46 0 3 -21 40 -46 83 -25 43
-49 85 -54 93 -5 8 -62 107 -127 219 -65 112 -131 227 -148 256 -27 48 -135
234 -160 276 -5 10 -17 30 -26 46 -17 31 -171 298 -173 299 -1 0 -37 -21 -81
-47z"/>
</g>
</svg>
